<svg width="24" height="24" viewBox="0 0 24 24" fill="none" xmlns="http://www.w3.org/2000/svg">
<path d="M13.6693 22.0003H13.6093C13.3892 21.987 13.1797 21.9014 13.0133 21.7567C12.8469 21.612 12.733 21.4164 12.6893 21.2003L11.1493 13.6303C11.1101 13.4381 11.0153 13.2617 10.8766 13.123C10.7379 12.9843 10.5615 12.8895 10.3693 12.8503L2.79934 11.3103C2.58281 11.2673 2.3866 11.1539 2.24129 10.9877C2.09599 10.8215 2.00977 10.6119 1.99607 10.3915C1.98237 10.1712 2.04196 9.95251 2.16556 9.76959C2.28916 9.58668 2.4698 9.4498 2.67934 9.3803L18.6793 4.0503C18.8589 3.97615 19.0562 3.95592 19.2472 3.99209C19.4381 4.02826 19.6143 4.11927 19.7543 4.25399C19.8943 4.3887 19.9921 4.56129 20.0356 4.75066C20.0791 4.94003 20.0665 5.13798 19.9993 5.3203L14.6693 21.3203C14.5998 21.5273 14.4643 21.7058 14.2838 21.8286C14.1032 21.9514 13.8874 22.0117 13.6693 22.0003Z" fill="white"/>
</svg>
