<svg width="29" height="29" viewBox="0 0 29 29" fill="none" xmlns="http://www.w3.org/2000/svg">
<path d="M14.4997 3.62463C13.2178 3.62463 11.9884 4.13386 11.082 5.04029C10.1756 5.94672 9.66634 7.17611 9.66634 8.458C9.66634 9.73989 10.1756 10.9693 11.082 11.8757C11.9884 12.7821 13.2178 13.2914 14.4997 13.2914C15.7816 13.2914 17.011 12.7821 17.9174 11.8757C18.8238 10.9693 19.3331 9.73989 19.3331 8.458C19.3331 7.17611 18.8238 5.94672 17.9174 5.04029C17.011 4.13386 15.7816 3.62463 14.4997 3.62463ZM14.4997 16.9164C10.8698 16.9164 3.62463 18.7386 3.62463 22.3539V24.1664C3.62463 24.8334 4.16597 25.3748 4.83297 25.3748H24.1664C24.8334 25.3748 25.3748 24.8334 25.3748 24.1664V22.3539C25.3748 18.7386 18.1296 16.9164 14.4997 16.9164Z" fill="#B5B5B5"/>
</svg>
