<svg width="24" height="24" viewBox="0 0 24 24" fill="none" xmlns="http://www.w3.org/2000/svg">
<path d="M21 4H6.109C5.419 4 4.778 4.355 4.413 4.94L0 12L4.412 19.06C4.778 19.645 5.419 20 6.109 20H21C22.105 20 23 19.105 23 18V6C23 4.895 22.105 4 21 4ZM17.707 15.293C18.098 15.684 18.098 16.316 17.707 16.707C17.512 16.902 17.256 17 17 17C16.744 17 16.488 16.902 16.293 16.707L13 13.414L9.707 16.707C9.512 16.902 9.256 17 9 17C8.744 17 8.488 16.902 8.293 16.707C7.902 16.316 7.902 15.684 8.293 15.293L11.586 12L8.293 8.707C7.902 8.316 7.902 7.684 8.293 7.293C8.684 6.902 9.316 6.902 9.707 7.293L13 10.586L16.293 7.293C16.684 6.902 17.316 6.902 17.707 7.293C18.098 7.684 18.098 8.316 17.707 8.707L14.414 12L17.707 15.293Z" fill="white"/>
</svg>
